<svg xmlns="http://www.w3.org/2000/svg" viewBox="0 0 800 600">
  <defs>
    <linearGradient id="bgA" x1="0" y1="0" x2="0" y2="1">
      <stop offset="0" stop-color="#fdeee5"/><stop offset="1" stop-color="#f8e2d6"/>
    </linearGradient>
    <linearGradient id="basket" x1="0" y1="0" x2="0" y2="1">
      <stop offset="0" stop-color="#c9975f"/><stop offset="1" stop-color="#a97540"/>
    </linearGradient>
  </defs>
  <rect width="800" height="600" fill="url(#bgA)"/>
  <ellipse cx="400" cy="470" rx="230" ry="30" fill="#00000012"/>
  <!-- canasta -->
  <path d="M260 300 L540 300 L520 460 Q400 480 280 460 Z" fill="url(#basket)"/>
  <g stroke="#8a5c30" stroke-width="4" opacity=".6">
    <path d="M270 320 L510 320M266 350 L514 350M272 380 L508 380M280 410 L500 410M290 440 L490 440"/>
  </g>
  <path d="M250 300h300v18a10 10 0 0 1-10 10H260a10 10 0 0 1-10-10z" fill="#8a5c30"/>
  <!-- celofan envolviendo -->
  <path d="M270 300 Q400 130 530 300 Z" fill="#ffffff" opacity=".35"/>
  <path d="M300 300 Q400 170 500 300 Z" fill="#ffffff" opacity=".3"/>
  <!-- moño -->
  <path d="M400 250c-26-30-84-26-84 6 0 22 52 20 84 0 32 20 84 22 84 0 0-32-58-36-84-6z" fill="#b8121f"/>
  <circle cx="400" cy="253" r="14" fill="#7d0f17"/>
  <text x="400" y="545" text-anchor="middle" font-family="Georgia, serif" font-size="28" font-weight="700" fill="#7a4a44">Desliza para ver el contenido →</text>
</svg>
